# Blender v2.80 (sub 75) OBJ File: ''
# www.blender.org
o Asteroids.012
v -0.101685 0.299099 -0.591184
v -0.076515 0.323576 -0.131676
v 0.273796 0.204374 -0.137872
v -0.652995 0.080672 -0.274158
v -0.446978 0.357943 -0.310387
v -0.521171 0.177928 -0.384304
v -0.555855 -0.029936 0.132956
v -0.283055 -0.142736 0.272684
v -0.220862 0.150970 0.409541
v -0.340111 0.023218 -0.510065
v 0.111673 0.006688 -0.572697
v -0.120658 -0.108542 -0.474277
v 0.639246 -0.061389 0.417940
v 0.380475 -0.091770 0.563031
v 0.304287 -0.298757 0.481173
v -0.251786 -0.317223 0.280378
v -0.464856 -0.267350 -0.075024
v -0.213069 -0.416547 0.155789
v -0.058791 -0.491595 -0.043145
v 0.332691 -0.370688 0.151410
v 0.086888 -0.469448 0.215934
v 0.412285 -0.017690 -0.227988
v 0.259539 0.127430 -0.462791
v -0.322644 0.254940 0.272906
v -0.031336 0.327965 0.276743
v 0.109582 0.335189 0.154626
v -0.124286 0.405129 0.148300
v 0.217291 -0.284250 -0.267678
v -0.682867 -0.033901 -0.028141
v -0.011151 -0.096466 0.390094
v -0.091330 0.106776 0.456253
v 0.564917 -0.170318 -0.086905
v 0.660052 -0.042225 0.190920
v 0.064024 -0.357014 -0.371562
v -0.265324 -0.389255 -0.223888
v 0.277954 0.279529 0.029602
v 0.502113 0.180950 0.195077
v -0.177365 0.386471 -0.303031
v -0.160598 0.229603 -0.658953
v 0.057588 -0.301687 0.485963
v 0.507104 0.038767 0.508188
v 0.302392 0.253437 0.205966
v 0.109355 0.023745 0.416889
v -0.665952 0.020876 -0.360260
v 0.571686 -0.299885 0.093764
v -0.436993 0.249074 0.135770
v -0.282026 0.413316 0.040109
v 0.314208 -0.058670 -0.374938
v -0.627043 -0.109786 -0.301500
v 0.641188 0.017176 0.395790
v 0.091185 0.183156 -0.589439
v 0.395810 -0.231082 0.284056
vt 0.118331 0.893022
vt 0.126246 0.877395
vt 0.146118 0.886591
vt 0.103082 0.935648
vt 0.105861 0.957618
vt 0.099277 0.944625
vt 0.121585 0.939737
vt 0.133540 0.939094
vt 0.136891 0.949076
vt 0.109516 0.908936
vt 0.127796 0.900559
vt 0.120116 0.908427
vt 0.170813 0.924311
vt 0.161454 0.933760
vt 0.155620 0.930019
vt 0.134436 0.933832
vt 0.118652 0.928396
vt 0.133315 0.928870
vt 0.134959 0.920926
vt 0.150468 0.919140
vt 0.143504 0.925168
vt 0.147446 0.897863
vt 0.134796 0.894872
vt 0.129996 0.952475
vt 0.142177 0.957412
vt 0.148741 0.961177
vt 0.135387 0.961807
vt 0.139087 0.908218
vt 0.113823 0.936949
vt 0.145777 0.941804
vt 0.142760 0.948581
vt 0.153915 0.906538
vt 0.166866 0.911811
vt 0.131667 0.910837
vt 0.124847 0.920483
vt 0.153399 0.883372
vt 0.169775 0.898519
vt 0.117369 0.886251
vt 0.115779 0.897201
vt 0.099325 0.908097
vt 0.147533 0.934068
vt 0.168047 0.933618
vt 0.160117 0.955885
vt 0.151913 0.944776
vt 0.100234 0.927980
vt 0.157127 0.913518
vt 0.122866 0.949981
vt 0.157730 0.966201
vt 0.130379 0.970593
vt 0.125839 0.958287
vt 0.139657 0.899401
vt 0.106789 0.927052
vt 0.101645 0.892983
vt 0.173493 0.925112
vt 0.125920 0.895932
vt 0.158723 0.922804
vt 0.171390 0.948790
vn 0.3203 0.9449 -0.0679
vn -0.7426 0.4924 -0.4539
vn -0.5243 -0.2659 0.8089
vn -0.1382 -0.4673 -0.8732
vn -0.1384 -0.4670 -0.8734
vn -0.1395 -0.4653 -0.8741
vn 0.4732 -0.4691 0.7457
vn -0.6808 -0.6610 0.3154
vn 0.3445 -0.9318 -0.1140
vn 0.8036 0.5703 -0.1703
vn -0.6901 0.2274 0.6871
vn 0.2594 0.8992 0.3525
vn -0.3439 -0.7323 -0.5877
vn 0.4115 -0.8635 -0.2914
vn -0.7160 0.6621 0.2214
vn -0.3047 -0.4014 0.8638
vn 0.8040 0.3853 -0.4530
vn -0.0937 -0.9085 -0.4073
vn -0.4414 -0.8973 -0.0038
vn 0.5796 0.7380 -0.3456
vn 0.2892 0.8707 -0.3979
vn -0.6755 -0.2655 -0.6879
vn -0.5162 -0.8564 0.0095
vn 0.6169 0.7834 -0.0755
vn -0.6002 -0.0537 -0.7981
vn -0.2088 -0.9574 0.1993
vn -0.4199 0.2649 0.8681
vn -0.3929 -0.2095 0.8954
vn -0.1765 0.7421 0.6466
vn -0.4069 0.2402 -0.8813
vn 0.0125 0.4266 0.9043
vn -0.2803 -0.8287 0.4844
vn -0.1369 -0.4985 -0.8560
vn 0.3268 -0.9171 0.2282
vn -0.7814 0.6020 0.1644
vn 0.2252 0.9451 -0.2369
vn 0.5083 -0.8467 -0.1569
vn 0.6375 -0.4351 -0.6358
vn -0.0987 0.7094 0.6979
vn -0.6551 0.7305 0.1929
vn 0.7764 0.2365 -0.5842
vn 0.0703 -0.2836 0.9564
vn -0.3979 0.1992 0.8956
vn -0.9400 -0.3256 -0.1016
vn -0.3659 -0.4701 -0.8032
vn 0.2178 -0.9423 -0.2543
vn -0.3835 0.6425 0.6635
vn 0.9376 -0.3430 0.0570
vn 0.4974 -0.6960 -0.5178
vn -0.5502 -0.0619 0.8327
vn -0.3050 0.7847 -0.5396
vn 0.6484 0.1917 0.7367
vn -0.5312 0.7407 0.4113
vn -0.6387 -0.5326 0.5553
vn 0.4962 -0.1201 0.8599
vn -0.2073 0.5430 0.8138
vn 0.4941 -0.5373 -0.6836
vn 0.2550 -0.0619 -0.9650
vn -0.6653 -0.6822 0.3031
vn -0.7463 0.3258 0.5804
vn 0.5765 -0.8170 -0.0128
vn 0.6656 -0.1496 -0.7311
vn 0.8337 -0.0157 -0.5520
vn 0.2873 0.9570 -0.0392
vn 0.0692 0.6426 0.7631
vn 0.7256 0.4734 0.4994
vn 0.3151 0.5121 -0.7991
vn 0.3441 0.9345 0.0906
vn 0.3695 0.9253 0.0857
vn 0.2650 -0.8022 0.5350
vn -0.4702 -0.0454 0.8814
vn -0.6961 -0.4495 0.5599
vn -0.2511 -0.7934 0.5545
vn 0.9463 -0.2449 -0.2111
vn 0.0204 -0.8483 0.5292
vn 0.4139 -0.8813 0.2279
vn 0.5998 -0.0063 -0.8001
vn 0.4939 0.8172 -0.2970
vn -0.3008 0.8121 0.5000
vn 0.2045 0.9486 -0.2414
vn -0.1073 0.9113 0.3976
vn -0.4145 -0.3108 0.8553
vn 0.6807 0.5969 -0.4248
vn 0.5331 0.5448 0.6474
vn 0.3675 0.5239 0.7684
vn -0.7207 0.6155 -0.3190
vn -0.9735 0.2282 -0.0120
vn 0.0748 0.8197 0.5680
vn -0.2979 -0.5453 -0.7835
vn -0.1396 -0.4651 -0.8742
vn 0.4818 0.8477 -0.2219
vn 0.5209 -0.5387 -0.6622
vn 0.9958 0.0011 0.0914
vn 0.7418 0.5326 -0.4076
vn -0.0230 -0.8283 -0.5598
vn -0.0916 0.9460 -0.3109
vn 0.8120 0.5763 -0.0923
vn 0.4388 0.8208 0.3657
vn 0.3333 0.8604 0.3854
vn -0.5685 0.5019 -0.6519
vn -0.7260 -0.6864 0.0423
vn 0.2228 0.9413 -0.2536
s 1
f 1/1/1 2/2/1 3/3/1
f 4/4/2 5/5/2 6/6/2
f 7/7/3 8/8/3 9/9/3
f 10/10/4 11/11/5 12/12/6
f 13/13/7 14/14/7 15/15/7
f 16/16/8 17/17/8 18/18/8
f 19/19/9 20/20/9 21/21/9
f 22/22/10 23/23/10 3/3/10
f 9/9/11 24/24/11 7/7/11
f 25/25/12 26/26/12 27/27/12
f 10/10/13 12/12/13 17/17/13
f 19/19/14 28/28/14 20/20/14
f 24/24/15 4/4/15 29/29/15
f 30/30/16 31/31/16 8/8/16
f 32/32/17 22/22/17 33/33/17
f 34/34/18 19/19/18 35/35/18
f 35/35/19 19/19/19 18/18/19
f 36/36/20 37/37/20 3/3/20
f 2/2/21 36/36/21 3/3/21
f 35/35/22 17/17/22 12/12/22
f 17/17/23 35/35/23 18/18/23
f 2/2/24 1/1/24 38/38/24
f 39/39/25 10/10/25 6/40/25
f 19/19/26 21/21/26 18/18/26
f 8/8/27 40/41/27 30/30/27
f 14/14/28 30/30/28 15/15/28
f 41/42/29 42/43/29 43/44/29
f 10/10/30 44/45/30 6/40/30
f 40/41/31 15/15/31 30/30/31
f 40/41/32 16/16/32 21/21/32
f 11/11/33 10/10/33 39/39/33
f 15/15/34 20/20/34 45/46/34
f 4/4/35 46/47/35 5/5/35
f 36/48/36 2/49/36 27/27/36
f 34/34/37 28/28/37 19/19/37
f 11/11/38 28/28/38 34/34/38
f 27/27/39 24/24/39 31/31/39
f 47/50/40 5/5/40 46/47/40
f 22/22/41 32/32/41 48/51/41
f 43/44/42 31/31/42 30/30/42
f 43/44/43 30/30/43 14/14/43
f 44/45/44 49/52/44 29/29/44
f 10/10/45 49/52/45 44/45/45
f 20/20/46 28/28/46 45/46/46
f 31/31/47 25/25/47 27/27/47
f 33/33/48 13/13/48 45/46/48
f 32/32/49 45/46/49 28/28/49
f 8/8/50 16/16/50 40/41/50
f 1/1/51 39/39/51 5/53/51
f 50/54/52 41/42/52 13/13/52
f 47/50/53 46/47/53 24/24/53
f 4/4/54 24/24/54 46/47/54
f 41/42/55 14/14/55 13/13/55
f 43/44/56 14/14/56 41/42/56
f 11/11/57 48/51/57 28/28/57
f 39/39/58 51/55/58 11/11/58
f 29/29/59 17/17/59 16/16/59
f 24/24/60 29/29/60 7/7/60
f 52/56/61 13/13/61 15/15/61
f 48/51/62 11/11/62 23/23/62
f 48/51/63 23/23/63 22/22/63
f 36/48/64 27/27/64 26/26/64
f 42/43/65 26/26/65 43/44/65
f 45/46/66 52/56/66 15/15/66
f 39/39/67 1/1/67 51/55/67
f 42/43/68 37/57/68 36/48/68
f 36/48/69 26/26/69 42/43/69
f 45/46/70 13/13/70 52/56/70
f 16/16/71 8/8/71 7/7/71
f 29/29/72 16/16/72 7/7/72
f 18/18/73 21/21/73 16/16/73
f 33/33/74 45/46/74 32/32/74
f 40/41/75 21/21/75 15/15/75
f 15/15/76 21/21/76 20/20/76
f 11/11/77 51/55/77 23/23/77
f 23/23/78 51/55/78 1/1/78
f 24/24/79 27/27/79 47/50/79
f 27/27/80 2/49/80 5/5/80
f 2/2/81 38/38/81 5/53/81
f 31/31/82 9/9/82 8/8/82
f 37/37/83 22/22/83 3/3/83
f 26/26/84 25/25/84 43/44/84
f 25/25/85 31/31/85 43/44/85
f 6/6/86 44/45/86 4/4/86
f 44/45/87 29/29/87 4/4/87
f 24/24/88 9/9/88 31/31/88
f 12/12/89 34/34/89 35/35/89
f 34/34/90 12/12/6 11/11/5
f 23/23/91 1/1/91 3/3/91
f 32/32/92 28/28/92 48/51/92
f 13/13/93 33/33/93 50/54/93
f 37/37/94 33/33/94 22/22/94
f 49/52/95 10/10/95 17/17/95
f 38/38/96 1/1/96 5/53/96
f 37/37/97 50/54/97 33/33/97
f 37/57/98 41/42/98 50/54/98
f 41/42/99 37/57/99 42/43/99
f 39/39/100 6/40/100 5/53/100
f 49/52/101 17/17/101 29/29/101
f 47/50/102 27/27/102 5/5/102
