# Blender v2.80 (sub 75) OBJ File: ''
# www.blender.org
o Asteroids.002
v -0.185207 -1.834817 2.575031
v -0.837455 -2.326702 1.448732
v 0.638743 -2.594878 1.536950
v 0.119175 2.687346 0.047598
v -0.632176 2.314240 1.021078
v -1.014857 2.194422 2.281079
v -1.759539 -0.302632 -1.651685
v -1.999138 -0.835586 -0.608566
v -2.429646 -0.388953 -0.104479
v 0.836621 1.500343 -2.686809
v -0.227828 2.001773 -2.235986
v 0.489555 2.278359 -1.753389
v 1.209272 0.706266 3.104751
v 2.050270 -0.919299 2.550052
v 2.355190 0.204526 2.492568
v -1.343422 -0.365500 2.950972
v -2.748362 -0.754836 1.144627
v -2.627898 -1.636872 1.094304
v 1.343338 2.833229 -0.435103
v 2.308162 2.135923 -0.046489
v 2.454634 1.181533 -1.126777
v -1.751523 0.475967 2.849337
v -2.343599 1.692115 0.559188
v -2.018107 1.813390 1.966330
v -1.874857 -1.577266 -1.848825
v 2.261481 0.091103 0.276518
v 1.866896 -0.433598 -2.021634
v 2.494928 0.654056 -1.726127
v 1.444917 1.397529 -2.979635
v 1.116733 -0.547502 -2.809046
v -0.325252 0.271280 -3.092590
v 0.955239 -1.466852 -2.438183
v 0.375380 -2.144267 -0.884969
v 0.140303 -1.997807 -1.564823
v -0.275057 1.024104 3.432201
v 0.001620 2.094249 1.464496
v 0.945779 -1.866538 2.567090
v -0.499548 -1.431693 3.122611
v 0.533482 -1.341508 3.122350
v -0.019091 -0.533355 3.408531
v 2.234820 0.893801 -2.329942
v 1.807919 -1.002511 -2.180576
v 1.541624 1.333414 -1.680254
v 1.651252 1.732090 -0.895772
v 0.032024 2.714477 1.182242
v 2.006854 1.849364 1.731565
v 1.291167 2.790376 0.353089
v 2.353521 1.370413 1.971531
v 2.852574 0.295172 1.899193
v -2.396978 1.442084 -1.832558
v -2.131176 1.607227 -1.236526
v -0.478073 2.041416 -2.475322
v 2.203171 -0.698306 0.326223
v 2.785281 0.451339 1.302383
v 2.635391 -1.471490 1.104655
v 2.665736 1.363182 -0.006688
v 1.647541 -1.661608 -1.196469
v -0.041392 -1.405292 -2.092990
v -1.453061 1.451523 2.855177
v -2.146221 0.905986 2.240417
v 0.297792 -1.542846 -2.375927
v -0.319416 0.134413 3.472195
v 2.080591 -1.293950 -0.623013
v -1.501496 1.571953 -1.178922
v -1.234678 1.616556 -0.460858
v 0.067388 2.325046 -1.400262
v 2.599829 -0.526793 2.234537
v -0.569480 2.145035 -0.153418
v -1.803024 -1.673131 2.675608
v -2.117730 -2.323779 0.976699
v -1.545685 -2.548335 1.158932
v -2.218813 -2.030562 -0.084468
v -1.510284 -2.363320 -0.798609
v 1.650940 1.595934 1.831741
v -2.081745 -2.066410 -0.893631
v -1.005087 -2.291335 -0.612591
v -0.108343 -2.675723 -0.271620
v 1.728224 -2.242285 -0.781397
v -2.828283 1.093048 0.082960
v -0.154837 2.719810 -0.499971
v -1.057463 -1.262814 -2.415671
v -0.671468 -1.163686 -2.234899
v -2.567106 0.730339 -1.587335
v -2.139318 1.087439 -2.317965
v 2.309430 -1.846598 -0.074637
v 1.634563 -2.493277 0.022533
v 2.297916 -1.984215 0.696834
v -1.102863 -0.319916 -2.631975
v -0.283763 1.761381 -2.846586
v -2.913541 0.386402 0.498110
v -2.706439 -1.225808 0.501778
v -2.557175 0.635920 1.378216
v -1.275832 -1.979908 -1.783478
v 0.498190 -2.708449 0.224043
v 1.048318 1.780341 -2.702628
v -1.240102 1.052590 -2.832537
v 1.209591 -2.327014 1.767623
vt 0.132931 0.052321
vt 0.205803 0.081318
vt 0.128895 0.112497
vt 0.230968 0.386378
vt 0.261969 0.409205
vt 0.272421 0.443844
vt 0.336690 0.240955
vt 0.366346 0.227184
vt 0.408397 0.264495
vt 0.220948 0.300526
vt 0.251911 0.321142
vt 0.223020 0.336397
vt 0.159850 0.496692
vt 0.073068 0.519574
vt 0.085981 0.459815
vt 0.326101 0.511786
vt 0.426016 0.394395
vt 0.460975 0.416724
vt 0.183691 0.371897
vt 0.142451 0.367962
vt 0.130456 0.316399
vt 0.327167 0.478264
vt 0.340381 0.374676
vt 0.316201 0.426189
vt 0.312056 0.199555
vt 0.083767 0.294811
vt 0.160796 0.249857
vt 0.148937 0.290631
vt 0.202118 0.294184
vt 0.204762 0.241475
vt 0.260006 0.256209
vt 0.197574 0.215477
vt 0.200000 0.167821
vt 0.216408 0.187261
vt 0.242157 0.496983
vt 0.220916 0.436084
vt 0.077849 0.104218
vt 0.286068 0.569315
vt 0.198881 0.577752
vt 0.236362 0.553097
vt 0.168887 0.289980
vt 0.169557 0.232881
vt 0.173596 0.318853
vt 0.164897 0.339345
vt 0.229295 0.416732
vt 0.137803 0.422811
vt 0.183291 0.393971
vt 0.113975 0.425870
vt 0.059449 0.404211
vt 0.329167 0.303345
vt 0.324457 0.325226
vt 0.261346 0.313351
vt 0.081941 0.261831
vt 0.061353 0.366957
vt 0.058860 0.219423
vt 0.112954 0.339358
vt 0.152632 0.208533
vt 0.236720 0.204032
vt 0.295563 0.462925
vt 0.342570 0.439443
vt 0.219630 0.208598
vt 0.250591 0.524721
vt 0.119841 0.227843
vt 0.302336 0.336368
vt 0.296671 0.359893
vt 0.237781 0.346408
vt 0.014156 0.251567
vt 0.049320 0.459119
vt 0.265181 0.375713
vt 0.385301 0.529498
vt 0.292614 0.093059
vt 0.253697 0.084298
vt 0.229299 0.013126
vt 0.323474 0.142580
vt 0.286424 0.153171
vt 0.148263 0.437462
vt 0.315103 0.168509
vt 0.257707 0.145107
vt 0.205358 0.140070
vt 0.144464 0.192159
vt 0.363701 0.340706
vt 0.238915 0.372007
vt 0.280121 0.208227
vt 0.263282 0.206147
vt 0.349801 0.283777
vt 0.319562 0.286611
vt 0.105781 0.209044
vt 0.131776 0.177637
vt 0.087251 0.194927
vt 0.288710 0.237745
vt 0.131015 0.016343
vt 0.256135 0.300755
vt 0.389305 0.336560
vt 0.454692 0.352375
vt 0.372635 0.395688
vt 0.370814 0.152010
vt 0.336521 0.091076
vt 0.285680 0.183920
vt 0.168362 0.138691
vt 0.210954 0.306530
vt 0.288330 0.278406
vt 0.097218 0.130888
vt 0.009939 0.187096
vt 0.066232 0.063644
vn -0.1844 -0.8570 0.4811
vn -0.5226 0.8490 -0.0780
vn -0.8423 -0.3764 -0.3858
vn 0.1097 0.7832 -0.6120
vn 0.4442 -0.0749 0.8928
vn -0.7666 -0.1404 0.6265
vn 0.6342 0.6201 -0.4618
vn -0.7284 -0.2776 0.6264
vn -0.3411 0.9400 -0.0021
vn -0.9805 0.1020 -0.1680
vn -0.9794 0.1144 -0.1665
vn -0.9795 0.1140 -0.1663
vn 0.8697 -0.4922 -0.0370
vn 0.1320 -0.1087 -0.9853
vn 0.2795 -0.9139 -0.2943
vn 0.2800 -0.9139 -0.2940
vn 0.2805 -0.9138 -0.2938
vn 0.4551 0.7538 0.4740
vn -0.0187 -0.8137 0.5809
vn 0.0279 -0.3167 0.9481
vn 0.5497 -0.1879 -0.8140
vn 0.1413 0.9892 0.0383
vn -0.0010 0.3857 -0.9226
vn -0.4928 0.8682 -0.0586
vn 0.5882 0.7768 0.2249
vn 0.9022 0.4096 0.1351
vn -0.3303 0.9372 -0.1123
vn 0.8671 -0.0164 -0.4978
vn 0.9544 -0.2971 0.0277
vn 0.5286 -0.7426 -0.4112
vn -0.1321 -0.5240 -0.8414
vn -0.7390 0.2223 0.6360
vn -0.9587 0.1972 0.2048
vn -0.6380 -0.6121 -0.4672
vn -0.5973 0.1484 -0.7882
vn -0.4156 -0.0922 0.9049
vn 0.7945 -0.5565 -0.2432
vn -0.4191 0.9024 0.0997
vn 0.9906 -0.0880 0.1047
vn 0.7640 0.0281 0.6447
vn -0.2422 0.9120 -0.3309
vn -0.5728 0.8064 -0.1468
vn -0.3346 -0.0801 0.9390
vn -0.8653 0.2081 0.4561
vn 0.6713 0.6837 -0.2862
vn -0.4416 -0.8075 0.3911
vn -0.5554 -0.8136 -0.1719
vn -0.1288 0.6528 0.7465
vn -0.3502 0.9365 -0.0173
vn 0.9307 -0.1847 0.3156
vn 0.4579 -0.4006 -0.7936
vn 0.6150 0.3014 0.7286
vn 0.1016 0.7858 0.6101
vn -0.4558 -0.8893 -0.0378
vn 0.4090 0.7891 -0.4582
vn 0.1645 -0.9353 0.3132
vn 0.1728 -0.9809 -0.0896
vn 0.6218 0.6596 -0.4221
vn -0.5632 0.8084 -0.1710
vn -0.0559 -0.7323 -0.6786
vn -0.0043 -0.7541 -0.6568
vn 0.2220 0.0327 0.9745
vn 0.3593 -0.1295 0.9242
vn 0.8419 -0.2314 -0.4874
vn -0.5646 0.8250 0.0232
vn 0.5619 0.8231 0.0819
vn -0.0775 0.9958 0.0490
vn 0.4672 -0.5339 -0.7047
vn -0.7241 0.6795 -0.1178
vn 0.0276 0.9987 -0.0439
vn 0.8873 0.3986 -0.2319
vn 0.9177 0.3268 -0.2260
vn -0.9680 0.1668 -0.1876
vn -0.6448 -0.4664 -0.6055
vn 0.9270 0.1971 -0.3189
vn 0.6779 -0.7254 -0.1193
vn -0.0551 0.9326 -0.3568
vn -0.3644 -0.2249 -0.9037
vn -0.0104 -0.8669 0.4985
vn -0.2976 -0.1413 0.9442
vn -0.4149 0.6141 -0.6713
vn -0.4159 0.6096 -0.6748
vn -0.4163 0.6077 -0.6763
vn -0.9088 -0.1158 0.4008
vn 0.8095 -0.2092 -0.5486
vn 0.1344 0.7897 0.5985
vn -0.8357 -0.1130 -0.5375
vn -0.8350 -0.1138 -0.5383
vn -0.8382 -0.1097 -0.5342
vn -0.8068 -0.5847 -0.0847
vn -0.7518 0.2856 0.5942
vn -0.4419 0.6970 0.5647
vn -0.4519 -0.7505 -0.4822
vn -0.8189 0.1594 -0.5514
vn -0.0450 0.4213 0.9058
vn -0.3169 0.6986 0.6415
vn -0.3993 -0.9167 0.0167
vn 0.1552 -0.9550 -0.2529
vn -0.9807 0.1041 -0.1653
vn -0.9797 0.1053 -0.1706
vn -0.8019 -0.1101 -0.5872
vn 0.6888 0.7248 -0.0155
vn 0.9116 -0.3607 -0.1972
vn -0.9899 -0.1372 0.0360
vn -0.8929 -0.4167 -0.1707
vn -0.4145 0.6158 -0.6700
vn -0.8705 0.0390 -0.4906
vn -0.8441 0.3823 -0.3760
vn -0.1172 0.9862 0.1171
vn 0.9821 -0.0511 -0.1815
vn -0.3652 -0.8348 -0.4119
vn 0.2424 -0.9222 -0.3013
vn -0.9079 0.0550 0.4155
vn -0.9693 0.1640 -0.1834
vn 0.5516 -0.1073 0.8272
vn -0.4050 0.5317 -0.7438
vn -0.4489 -0.4830 -0.7518
vn -0.0031 -0.5125 -0.8587
vn -0.3375 -0.9366 -0.0946
vn 0.8599 -0.5046 -0.0772
vn 0.5999 -0.7012 0.3852
vn -0.0456 -0.3668 -0.9292
vn 0.0557 -0.8754 -0.4802
vn -0.8505 -0.0378 0.5246
vn 0.5035 0.3373 0.7954
vn -0.0798 0.9964 -0.0300
vn -0.0962 -0.6786 -0.7282
vn 0.0200 0.9349 0.3543
vn 0.1084 0.7968 0.5945
vn -0.9868 0.0252 -0.1598
vn -0.8697 0.4001 0.2892
vn 0.6731 -0.7246 -0.1478
vn -0.5854 0.7975 -0.1461
vn -0.6398 0.6788 0.3604
vn 0.3702 -0.0748 0.9259
vn 0.8996 -0.0933 -0.4266
vn -0.8388 -0.1090 -0.5334
vn -0.8947 -0.3925 -0.2134
vn -0.7593 -0.6386 0.1250
vn -0.0261 -0.8183 -0.5742
vn 0.8780 -0.3514 -0.3249
vn 0.2299 0.0106 0.9731
vn 0.6580 0.4397 -0.6113
vn -0.2756 0.8535 -0.4423
vn -0.1543 0.9386 -0.3086
vn 0.8091 -0.3362 -0.4820
vn 0.9023 0.3519 -0.2490
vn 0.4235 -0.4800 0.7683
vn -0.0158 -0.7323 0.6808
vn -0.4021 0.1176 0.9080
vn -0.3859 0.0606 0.9205
vn 0.1727 -0.8278 0.5338
vn 0.3636 -0.9306 0.0416
vn -0.1367 0.1651 -0.9768
vn 0.9585 0.1689 -0.2298
vn 0.5546 0.3402 0.7594
vn 0.7120 0.2874 0.6407
vn 0.5995 -0.1698 -0.7822
vn -0.8448 0.4240 0.3265
vn 0.0686 -0.7842 0.6167
vn -0.9146 0.2811 0.2906
vn -0.1260 -0.8320 0.5402
vn -0.3441 -0.2413 0.9074
vn -0.4022 -0.1716 -0.8993
vn -0.8212 -0.1621 -0.5472
vn 0.3139 -0.9485 -0.0418
vn 0.6753 -0.5552 0.4855
vn 0.5504 -0.6320 0.5456
vn 0.7311 0.6432 0.2276
vn -0.7181 -0.5951 0.3609
vn 0.6681 0.7441 0.0029
vn -0.6443 0.4523 -0.6166
vn 0.4719 0.8048 -0.3601
vn 0.1301 -0.9507 -0.2816
vn -0.4462 0.8763 -0.1814
vn -0.1026 0.9585 0.2661
vn 0.3886 -0.9158 0.1018
vn -0.7471 -0.5620 -0.3549
vn 0.0204 -0.5795 -0.8147
vn 0.2745 -0.9147 -0.2965
vn 0.0635 0.9943 -0.0854
vn 0.1749 0.1556 -0.9722
vn 0.2844 0.8249 0.4886
vn 0.9938 -0.0784 -0.0791
vn 0.9862 -0.0221 -0.1643
vn 0.6046 -0.6311 0.4859
vn -0.1838 -0.9774 0.1042
vn -0.1597 -0.9785 0.1308
vn -0.3045 -0.5761 -0.7586
vn 0.7888 -0.5238 -0.3217
vn 0.4166 -0.7844 -0.4595
vn 0.2404 -0.8736 0.4230
vn -0.4987 -0.2165 -0.8393
vn 0.8945 0.4216 0.1486
vn 0.9910 -0.0488 -0.1245
vn -0.3872 0.2425 -0.8895
vn -0.2907 0.5364 -0.7923
vn 0.2607 0.8899 -0.3742
s 1
f 1/1/1 2/2/1 3/3/1
f 4/4/2 5/5/2 6/6/2
f 7/7/3 8/8/3 9/9/3
f 10/10/4 11/11/4 12/12/4
f 13/13/5 14/14/5 15/15/5
f 16/16/6 17/17/6 18/18/6
f 19/19/7 20/20/7 21/21/7
f 17/17/8 16/16/8 22/22/8
f 5/5/9 23/23/9 24/24/9
f 8/8/10 7/7/11 25/25/12
f 26/26/13 27/27/13 28/28/13
f 29/29/14 30/30/14 31/31/14
f 32/32/15 33/33/16 34/34/17
f 6/6/18 35/35/18 36/36/18
f 1/1/19 3/3/19 37/37/19
f 38/38/20 39/39/20 40/40/20
f 41/41/21 42/42/21 29/29/21
f 21/21/22 29/29/22 43/43/22
f 19/19/23 21/21/23 44/44/23
f 45/45/24 4/4/24 6/6/24
f 46/46/25 20/20/25 47/47/25
f 20/20/26 48/48/26 49/49/26
f 50/50/27 51/51/27 52/52/27
f 53/53/28 54/54/28 55/55/28
f 28/28/29 56/56/29 26/26/29
f 32/32/30 42/42/30 57/57/30
f 30/30/31 58/58/31 31/31/31
f 22/22/32 59/59/32 60/60/32
f 60/60/33 24/24/33 23/23/33
f 58/58/34 61/61/34 34/34/34
f 61/61/35 58/58/35 30/30/35
f 62/62/36 22/22/36 16/16/36
f 57/57/37 42/42/37 63/63/37
f 64/64/38 65/65/38 66/66/38
f 67/67/39 55/55/39 54/54/39
f 49/49/40 15/15/40 67/68/40
f 5/5/41 65/65/41 23/23/41
f 5/5/42 68/69/42 65/65/42
f 40/40/43 16/16/43 69/70/43
f 18/18/44 69/70/44 16/16/44
f 21/21/45 41/41/45 29/29/45
f 70/71/46 71/72/46 69/73/46
f 72/74/47 73/75/47 70/71/47
f 59/59/48 35/35/48 6/6/48
f 6/6/49 5/5/49 24/24/49
f 41/41/50 27/27/50 42/42/50
f 42/42/51 32/32/51 30/30/51
f 36/36/52 45/45/52 6/6/52
f 74/76/53 47/47/53 36/36/53
f 75/77/54 73/75/54 72/74/54
f 44/44/55 21/21/55 43/43/55
f 71/72/56 2/2/56 1/1/56
f 73/75/57 76/78/57 71/72/57
f 44/44/58 43/43/58 12/12/58
f 65/65/59 68/69/59 66/66/59
f 76/78/60 33/33/60 77/79/60
f 33/33/61 78/80/61 77/79/61
f 13/13/62 35/35/62 62/62/62
f 13/13/63 40/40/63 14/14/63
f 78/80/64 57/57/64 63/63/64
f 50/50/65 79/81/65 51/51/65
f 47/47/66 20/20/66 19/19/66
f 19/19/67 80/82/67 47/47/67
f 81/83/68 31/31/68 82/84/68
f 51/51/69 79/81/69 23/23/69
f 23/23/70 65/65/70 51/51/70
f 21/21/71 20/20/71 56/56/71
f 56/56/72 28/28/72 21/21/72
f 79/81/73 50/50/73 83/85/73
f 83/85/74 84/86/74 7/7/74
f 85/87/75 53/53/75 55/55/75
f 86/88/76 85/87/76 87/89/76
f 80/82/77 19/19/77 12/12/77
f 81/83/78 88/90/78 31/31/78
f 69/73/79 71/72/79 38/91/79
f 40/40/80 69/70/80 38/38/80
f 89/92/81 50/50/82 52/52/83
f 90/93/84 91/94/84 92/95/84
f 78/80/85 63/63/85 85/87/85
f 74/76/86 13/13/86 48/48/86
f 9/9/87 72/74/88 91/96/89
f 72/74/90 70/71/90 18/97/90
f 24/24/91 60/60/91 59/59/91
f 59/59/92 6/6/92 24/24/92
f 75/77/93 25/25/93 93/98/93
f 7/7/94 88/90/94 25/25/94
f 74/76/95 48/48/95 46/46/95
f 74/76/96 46/46/96 47/47/96
f 2/2/97 76/78/97 77/79/97
f 77/79/98 78/80/98 94/99/98
f 8/8/10 75/77/99 72/74/100
f 8/8/101 72/74/101 9/9/101
f 43/43/102 29/29/102 95/100/102
f 54/54/103 49/49/103 67/68/103
f 91/94/104 18/18/104 17/17/104
f 91/96/105 72/74/105 18/97/105
f 50/50/82 89/92/81 84/86/106
f 83/85/107 50/50/107 84/86/107
f 68/69/108 80/82/108 66/66/108
f 4/4/109 47/47/109 80/82/109
f 63/63/110 42/42/110 27/27/110
f 73/75/111 75/77/111 93/98/111
f 73/75/112 93/98/112 76/78/112
f 17/17/113 60/60/113 92/95/113
f 17/17/114 92/95/114 91/94/114
f 15/15/115 14/14/115 67/68/115
f 96/101/116 84/86/116 89/92/116
f 96/101/117 7/7/117 84/86/117
f 82/84/118 31/31/118 58/58/118
f 73/75/119 71/72/119 70/71/119
f 87/89/120 85/87/120 55/55/120
f 97/102/121 87/89/121 55/55/121
f 61/61/122 30/30/122 32/32/122
f 61/61/123 32/32/123 34/34/123
f 22/22/124 60/60/124 17/17/124
f 47/47/125 45/45/125 36/36/125
f 47/47/126 4/4/126 45/45/126
f 82/84/127 58/58/127 34/34/127
f 8/8/10 25/25/12 75/77/99
f 52/52/128 51/51/128 64/64/128
f 36/36/129 13/13/129 74/76/129
f 79/81/130 83/85/130 90/93/130
f 60/60/131 23/23/131 92/95/131
f 86/88/132 78/80/132 85/87/132
f 68/69/133 5/5/133 4/4/133
f 4/4/134 80/82/134 68/69/134
f 39/39/135 14/14/135 40/40/135
f 26/26/136 54/54/136 53/53/136
f 90/93/137 9/9/87 91/94/89
f 83/85/138 9/9/138 90/93/138
f 82/84/139 34/34/139 33/33/139
f 82/84/140 33/33/140 76/78/140
f 56/56/141 54/54/141 26/26/141
f 13/13/142 62/62/142 40/40/142
f 19/19/143 44/44/143 12/12/143
f 66/66/144 80/82/144 12/12/144
f 12/12/145 11/11/145 66/66/145
f 28/28/146 27/27/146 41/41/146
f 21/21/147 28/28/147 41/41/147
f 14/103/148 39/104/148 37/37/148
f 1/1/149 37/37/149 39/104/149
f 59/59/150 22/22/150 35/35/150
f 22/22/151 62/62/151 35/35/151
f 3/3/152 97/102/152 37/37/152
f 94/99/153 87/89/153 3/3/153
f 31/31/154 96/101/154 89/92/154
f 53/53/155 85/87/155 63/63/155
f 13/13/156 15/15/156 48/48/156
f 48/48/157 15/15/157 49/49/157
f 29/29/158 42/42/158 30/30/158
f 23/23/159 79/81/159 92/95/159
f 1/1/160 39/104/160 38/91/160
f 79/81/161 90/93/161 92/95/161
f 71/72/162 1/1/162 38/91/162
f 62/62/163 16/16/163 40/40/163
f 96/101/164 31/31/164 88/90/164
f 88/90/165 7/7/165 96/101/165
f 76/78/166 2/2/166 71/72/166
f 14/103/167 55/55/167 67/67/167
f 14/103/168 37/37/168 97/102/168
f 20/20/169 46/46/169 48/48/169
f 18/97/170 70/71/170 69/73/170
f 43/43/171 95/100/171 12/12/171
f 95/100/172 10/10/172 12/12/172
f 89/92/173 52/52/173 11/11/173
f 78/80/174 86/88/174 94/99/174
f 64/64/175 66/66/175 11/11/175
f 52/52/176 64/64/176 11/11/176
f 3/3/177 87/89/177 97/102/177
f 83/85/178 7/7/178 9/9/178
f 57/57/179 78/80/179 33/33/179
f 32/32/15 57/57/180 33/33/16
f 51/51/181 65/65/181 64/64/181
f 31/31/182 89/92/182 10/10/182
f 13/13/183 36/36/183 35/35/183
f 53/53/184 63/63/184 26/26/184
f 63/63/185 27/27/185 26/26/185
f 14/103/186 97/102/186 55/55/186
f 2/2/187 94/99/187 3/3/187
f 77/79/188 94/99/188 2/2/188
f 25/25/189 81/83/189 93/98/189
f 81/83/190 76/78/190 93/98/190
f 81/83/191 82/84/191 76/78/191
f 94/99/192 86/88/192 87/89/192
f 25/25/193 88/90/193 81/83/193
f 20/20/194 49/49/194 56/56/194
f 54/54/195 56/56/195 49/49/195
f 95/100/196 29/29/196 10/10/196
f 31/31/197 10/10/197 29/29/197
f 10/10/198 89/92/198 11/11/198
