# Blender v2.80 (sub 75) OBJ File: ''
# www.blender.org
o Asteroids.005
v -0.319155 -0.444178 -1.140370
v -0.718657 -1.315559 -0.111507
v -0.814425 -0.846049 -0.949329
v 2.605450 0.560051 -1.117944
v 2.250234 0.451323 -0.216915
v 2.446127 -0.570704 -0.584253
v 0.244931 -0.743213 1.055946
v 0.853040 -0.718381 0.804451
v 1.358059 -0.081962 0.740794
v -1.625834 0.676379 -0.071349
v -0.518520 0.218373 -1.013126
v -1.606841 -0.320244 -0.560782
v -1.906302 -0.894821 0.185513
v -1.637905 -1.109369 0.822114
v -2.848289 -0.766572 1.879020
v -2.452942 0.685612 1.051098
v -1.045558 1.375875 0.307613
v 0.787210 -1.150670 0.148176
v 0.348823 -1.230274 -0.230951
v 0.740202 -1.245401 -0.974427
v 2.809568 -0.361618 -1.336007
v 2.018178 -0.805772 -1.549974
v 3.003187 0.116395 -2.142688
v 0.150859 -0.401889 -1.417402
v 0.955243 -1.028318 -1.452089
v 0.166422 -1.071281 -0.514467
v 1.870045 -0.407003 -2.703061
v 1.575276 0.420494 -2.480255
v 2.395041 0.098246 -2.661209
v -1.104900 -1.221948 0.792153
v -2.711637 0.750492 2.073095
v -2.977983 0.013582 1.455208
v -3.169276 0.174337 2.282391
v -2.014740 0.344052 2.641544
v -1.734589 0.483230 2.343084
v -1.886940 -0.949656 2.409021
v -1.720026 -0.611689 2.582953
v -2.975691 -0.351775 2.559731
v 0.561514 0.616471 -1.837736
v -0.206964 0.663711 -1.007756
v -0.604952 1.225688 -0.178039
v 0.337778 0.307275 -1.426196
v 0.405630 -0.679457 -1.934278
v -2.060910 0.991181 1.394346
v -2.872793 -0.375649 1.339477
v -2.358150 -0.602536 0.477441
v 1.636928 0.925453 -2.112978
v 2.474196 0.962727 -1.689977
v 2.538132 0.443577 -2.438845
v 2.957184 0.410931 -1.428819
v 2.943058 -0.035192 -1.364574
v 0.525829 1.478363 -0.654159
v 0.842905 1.318503 -1.370933
v -0.264951 1.378044 0.334355
v 0.611157 1.398224 0.050035
v -1.210196 0.499227 1.556096
v -1.459292 0.244908 2.453493
v -1.134078 0.245712 1.621555
v 1.535590 -1.101972 -0.416595
v 1.410972 -1.112351 -1.249763
v 2.094977 -0.777955 -0.432397
v -2.116977 0.274005 0.136978
v 0.698283 -0.941927 -1.748525
v 2.446040 -0.456161 -2.541772
v 1.551582 -0.893553 -2.292680
v -2.167953 -1.178126 1.614160
v -1.802413 -1.235948 1.938619
v 1.458457 1.136997 0.038518
v 1.159974 -0.591466 -2.413177
v 0.962566 1.047673 1.216457
v 0.992755 1.314076 0.537686
v 0.270419 1.272265 1.244117
v 1.816160 -0.337950 0.449137
v 1.638224 0.179285 0.575960
v 0.760872 0.903510 -1.869920
v 0.569505 0.611461 1.549958
v -0.645110 -0.354250 1.484937
v 0.985938 0.118124 1.219956
v -3.178110 -0.128573 2.380879
v -1.211297 -0.976107 -0.544235
v 0.287761 1.024735 1.460720
v -2.753773 0.847605 1.815459
v -2.534993 -0.059515 0.587759
v -1.981331 1.046027 1.026610
v -1.002283 -0.384584 2.212896
v -1.136734 -0.792098 2.227699
v 2.860409 -0.226940 -2.262284
v 1.991839 -0.904404 -2.041809
v -1.374708 0.859052 1.230208
v 1.274697 1.451603 -0.743378
v 1.189469 0.192838 -2.405548
v 1.399798 0.782139 0.906424
v -1.168911 -1.097456 1.978753
v 1.250950 1.275035 -1.621245
v -1.604841 -1.311981 1.471389
v -0.768922 1.387586 0.459399
v 0.391430 0.002133 -1.869659
vt 0.923447 0.551810
vt 0.983025 0.589436
vt 0.944393 0.579054
vt 0.758249 0.539974
vt 0.748077 0.573719
vt 0.714928 0.558884
vt 0.728109 0.672856
vt 0.715230 0.647113
vt 0.730804 0.624099
vt 0.892134 0.640166
vt 0.899526 0.574061
vt 0.926648 0.620942
vt 0.953068 0.653067
vt 0.974937 0.673241
vt 0.929153 0.754757
vt 0.883225 0.694052
vt 0.857657 0.639339
vt 0.682127 0.638504
vt 0.665281 0.652748
vt 0.640682 0.608196
vt 0.727081 0.523017
vt 0.690847 0.524744
vt 0.762305 0.490265
vt 0.906104 0.528783
vt 0.899269 0.474174
vt 0.957270 0.527446
vt 0.822273 0.480857
vt 0.825256 0.507705
vt 0.796816 0.488348
vt 0.715421 0.737585
vt 0.864876 0.729260
vt 0.901836 0.727922
vt 0.872903 0.757453
vt 0.832876 0.736062
vt 0.829161 0.720671
vt 0.793371 0.757412
vt 0.801049 0.747279
vt 0.849176 0.776707
vt 0.860477 0.538755
vt 0.875997 0.574872
vt 0.862525 0.614239
vt 0.881084 0.544604
vt 0.888904 0.504358
vt 0.858820 0.694312
vt 0.919194 0.726907
vt 0.938738 0.678840
vt 0.816404 0.525293
vt 0.781507 0.528637
vt 0.787848 0.498198
vt 0.756226 0.521722
vt 0.740494 0.521796
vt 0.828721 0.583558
vt 0.832917 0.558537
vt 0.838808 0.623624
vt 0.814452 0.601977
vt 0.816974 0.689365
vt 0.815733 0.722451
vt 0.805144 0.694202
vt 0.675483 0.589250
vt 0.658023 0.556270
vt 0.701165 0.572769
vt 0.906746 0.659401
vt 0.891658 0.488141
vt 0.798002 0.471700
vt 0.847392 0.468556
vt 0.772681 0.777744
vt 0.771457 0.764623
vt 0.816571 0.800171
vt 0.782157 0.591013
vt 0.854986 0.486624
vt 0.780351 0.628152
vt 0.793147 0.609978
vt 0.802560 0.638069
vt 0.718803 0.605283
vt 0.738409 0.609409
vt 0.847766 0.540371
vt 0.774591 0.647229
vt 0.768017 0.696640
vt 0.751481 0.639048
vt 0.869361 0.771808
vt 0.951788 0.603680
vt 0.793368 0.645412
vt 0.870579 0.720773
vt 0.917485 0.686783
vt 0.865036 0.681470
vt 0.786170 0.721036
vt 0.776462 0.733559
vt 0.765535 0.480384
vt 0.832113 0.452717
vt 0.837935 0.435267
vt 0.720229 0.770276
vt 0.837641 0.678954
vt 0.927216 0.484637
vt 0.887800 0.450865
vt 0.806712 0.571560
vt 0.843019 0.508201
vt 0.764877 0.616553
vt 0.763310 0.739550
vt 0.822475 0.546710
vt 0.746238 0.762124
vt 0.846947 0.638084
vt 0.875983 0.523867
vt 0.673711 0.710618
vt 0.651325 0.658377
vn 0.4352 -0.7633 -0.4775
vn 0.9276 0.0444 0.3710
vn 0.3809 -0.2122 0.9000
vn -0.5072 0.3721 -0.7773
vn -0.3848 -0.9116 -0.1450
vn -0.5697 0.7031 -0.4256
vn 0.1121 -0.9906 0.0789
vn 0.1116 -0.9906 0.0789
vn 0.1130 -0.9905 0.0789
vn 0.2468 -0.8205 0.5157
vn 0.5284 -0.7800 -0.3353
vn -0.5480 -0.6764 -0.4920
vn -0.1293 0.2146 -0.9681
vn 0.0775 -0.9900 0.1182
vn -0.3643 -0.9182 -0.1559
vn -0.7981 0.5295 -0.2875
vn 0.0991 0.8630 0.4955
vn -0.1026 -0.4147 0.9042
vn -0.6386 0.4593 -0.6174
vn -0.6412 0.4565 -0.6168
vn -0.6388 0.4591 -0.6174
vn -0.8269 0.2115 -0.5211
vn 0.1238 0.8919 0.4349
vn -0.7895 -0.5135 -0.3362
vn 0.2368 0.8078 -0.5398
vn 0.9971 -0.0211 0.0729
vn -0.6100 0.6722 -0.4197
vn 0.0131 0.9937 0.1110
vn 0.0124 0.9940 0.1087
vn 0.0133 0.9937 0.1115
vn 0.8723 0.3501 0.3413
vn 0.4693 -0.8811 -0.0592
vn 0.4899 -0.2102 0.8460
vn -0.3993 0.0561 -0.9151
vn -0.3985 0.0559 -0.9155
vn -0.3998 0.0563 -0.9149
vn 0.5012 -0.8653 -0.0024
vn -0.5922 0.3461 -0.7277
vn -0.5819 -0.7628 0.2821
vn 0.1399 -0.6903 -0.7099
vn -0.4046 -0.8632 0.3020
vn 0.6756 0.6516 0.3450
vn -0.3532 -0.7038 -0.6164
vn 0.3009 0.8831 0.3600
vn 0.0123 0.9940 0.1084
vn 0.7834 0.5401 -0.3076
vn 0.6643 0.6744 0.3223
vn -0.0985 -0.7402 -0.6651
vn 0.7683 0.1097 0.6307
vn 0.0208 0.5864 -0.8097
vn -0.4716 0.7146 -0.5168
vn 0.2545 -0.3800 0.8893
vn -0.7995 -0.5677 0.1963
vn 0.3130 -0.7652 0.5626
vn 0.6932 0.1086 0.7125
vn -0.4078 0.0588 -0.9112
vn -0.1894 -0.8656 -0.4635
vn 0.2507 -0.1818 -0.9508
vn 0.3012 0.3929 0.8689
vn -0.8459 0.3457 -0.4062
vn -0.1321 0.9842 0.1182
vn 0.4751 -0.8776 0.0646
vn -0.0810 -0.9736 -0.2135
vn 0.3638 -0.1764 0.9146
vn 0.8685 -0.2715 0.4148
vn 0.6471 -0.1032 -0.7554
vn 0.7353 -0.4744 0.4840
vn 0.4597 -0.0057 0.8881
vn 0.4864 -0.1291 0.8642
vn 0.2175 -0.9592 0.1807
vn 0.6294 -0.7678 0.1203
vn -0.5839 -0.6760 -0.4495
vn 0.2296 0.9541 0.1920
vn -0.2294 0.5907 -0.7736
vn 0.9082 -0.1809 0.3775
vn -0.6267 -0.5074 -0.5915
vn -0.7638 0.0942 -0.6386
vn 0.6114 0.7270 0.3125
vn -0.6086 -0.5825 -0.5387
vn 0.1135 -0.8007 -0.5882
vn -0.6491 -0.6954 -0.3084
vn -0.6838 -0.1422 -0.7156
vn 0.0094 0.9769 -0.2137
vn 0.0483 0.9931 0.1072
vn -0.0037 0.2087 0.9780
vn 0.4194 -0.2454 0.8740
vn -0.7995 0.4061 -0.4425
vn -0.8644 -0.1866 -0.4669
vn -0.3920 0.3911 -0.8327
vn -0.2762 0.1569 -0.9482
vn 0.7945 -0.0185 0.6069
vn 0.6772 0.6639 0.3172
vn 0.1483 -0.8327 0.5335
vn 0.3036 -0.5502 0.7779
vn -0.7015 -0.3318 -0.6307
vn -0.7407 -0.2781 -0.6116
vn -0.5671 0.7141 -0.4104
vn -0.5741 0.7254 -0.3797
vn 0.5108 -0.8597 0.0078
vn -0.2788 0.7604 -0.5866
vn -0.2667 -0.7764 -0.5710
vn -0.5121 0.1244 -0.8499
vn 0.3171 -0.9401 0.1250
vn 0.0497 0.8051 0.5911
vn -0.1677 0.6425 0.7477
vn -0.3906 -0.8167 0.4247
vn -0.3892 -0.8163 0.4269
vn -0.3895 -0.8164 0.4265
vn -0.3907 -0.8167 0.4246
vn -0.4275 0.6784 -0.5976
vn -0.3827 0.5700 -0.7271
vn -0.4339 0.2900 0.8530
vn 0.7683 0.1814 0.6138
vn -0.2917 -0.7475 -0.5968
vn -0.6850 -0.7266 0.0525
vn 0.4325 0.8483 0.3054
vn 0.2901 0.7119 0.6396
vn -0.6415 0.4562 -0.6167
vn -0.1840 -0.5606 -0.8074
vn -0.3831 0.0234 -0.9234
vn 0.6796 0.0834 0.7289
vn 0.6133 0.7052 0.3557
vn 0.2643 -0.8250 -0.4995
vn 0.0471 -0.9910 -0.1255
vn -0.6748 0.3991 -0.6208
vn -0.5327 0.2805 -0.7984
vn 0.0622 0.9905 0.1222
vn 0.2932 0.9539 -0.0648
vn -0.6714 -0.4493 -0.5894
vn -0.3800 -0.8868 -0.2631
vn -0.5155 0.6755 -0.5272
vn -0.9935 -0.0100 -0.1134
vn 0.0132 -0.9125 -0.4088
vn 0.1882 -0.9820 -0.0159
vn -0.2873 -0.9184 -0.2720
vn 0.0235 0.5343 -0.8450
vn 0.6292 0.2194 -0.7456
vn -0.8015 0.3770 -0.4643
vn -0.2134 -0.9356 -0.2811
vn -0.2059 -0.9785 0.0133
vn 0.6253 -0.1702 0.7616
vn -0.2033 0.7156 -0.6683
vn 0.1949 0.8652 -0.4621
vn 0.3397 0.6890 0.6402
vn 0.5221 0.7715 0.3636
vn 0.0825 0.9708 -0.2253
vn 0.0947 -0.9853 0.1425
vn 0.0139 -0.8683 -0.4959
vn 0.6030 0.0645 0.7951
vn 0.6586 0.7096 -0.2503
vn 0.0186 0.9366 0.3500
vn -0.4349 -0.8754 -0.2111
vn -0.7854 -0.1330 -0.6045
vn 0.3049 -0.6209 0.7222
vn -0.4386 0.3170 -0.8409
vn -0.0236 0.2433 0.9697
vn 0.9255 -0.3787 -0.0023
vn 0.8822 -0.3315 0.3343
vn 0.5721 -0.7968 -0.1947
vn 0.5290 0.0745 -0.8454
vn 0.3558 -0.7546 0.5513
vn 0.6817 -0.3143 0.6607
vn 0.5259 -0.0275 0.8501
vn -0.0163 0.9803 -0.1967
vn 0.2394 0.6488 0.7223
vn 0.1235 -0.9893 0.0783
vn 0.4709 -0.7316 0.4930
vn -0.2144 -0.9744 0.0679
vn 0.1932 -0.9522 0.2366
vn -0.9752 -0.0422 -0.2173
vn 0.2320 0.9524 -0.1978
vn -0.0455 0.9654 -0.2569
vn -0.1935 0.9681 -0.1595
vn 0.5460 -0.5632 0.6203
vn 0.5442 0.5139 0.6631
vn -0.0332 -0.0714 0.9969
vn 0.3273 0.0430 0.9440
vn 0.4423 -0.7387 0.5086
vn -0.3247 0.3448 0.8807
vn -0.3215 0.5383 0.7790
vn 0.6486 0.6882 0.3252
vn 0.8205 0.4729 0.3212
vn 0.4080 -0.7807 0.4733
vn -0.8890 -0.1080 -0.4449
vn 0.0415 0.9950 0.0913
vn -0.2239 0.8769 0.4254
vn -0.0098 -0.9903 -0.1385
vn 0.0761 -0.1620 0.9839
vn -0.4376 0.0409 -0.8983
vn 0.2848 0.9106 0.2995
vn 0.7548 0.5258 0.3922
vn -0.1681 0.6184 0.7677
vn -0.9253 -0.3258 -0.1940
vn -0.9537 -0.1878 -0.2350
vn -0.9618 0.1639 0.2191
vn -0.5671 0.0660 -0.8210
vn -0.5381 0.0284 -0.8424
vn -0.1647 0.9601 0.2261
vn 0.5095 0.8330 0.2154
vn -0.6665 0.5569 -0.4957
s 1
f 1/1/1 2/2/1 3/3/1
f 4/4/2 5/5/2 6/6/2
f 7/7/3 8/8/3 9/9/3
f 10/10/4 11/11/4 12/12/4
f 13/13/5 14/14/5 15/15/5
f 10/10/6 16/16/6 17/17/6
f 18/18/7 19/19/8 20/20/9
f 18/18/10 8/8/10 7/7/10
f 21/21/11 22/22/11 23/23/11
f 24/24/12 25/25/12 26/26/12
f 27/27/13 28/28/13 29/29/13
f 18/18/14 30/30/14 19/19/14
f 2/2/15 14/14/15 13/13/15
f 31/31/16 32/32/16 33/33/16
f 34/34/17 35/35/17 31/31/17
f 36/36/18 37/37/18 38/38/18
f 39/39/19 40/40/20 41/41/21
f 42/42/22 43/43/22 24/24/22
f 35/35/23 44/44/23 31/31/23
f 45/45/24 46/46/24 15/15/24
f 47/47/25 48/48/25 49/49/25
f 23/23/26 50/50/26 51/51/26
f 52/52/27 53/53/27 54/54/27
f 54/54/28 55/55/29 52/52/30
f 56/56/31 57/57/31 58/58/31
f 21/21/32 59/59/32 60/60/32
f 5/5/33 61/61/33 6/6/33
f 11/11/34 1/1/35 3/3/36
f 21/21/37 61/61/37 59/59/37
f 12/12/38 62/62/38 10/10/38
f 24/24/39 63/63/39 25/25/39
f 27/27/40 64/64/40 65/65/40
f 66/66/41 67/67/41 15/68/41
f 4/4/42 68/69/42 5/5/42
f 63/63/43 69/70/43 65/65/43
f 70/71/44 71/72/44 72/73/44
f 72/73/45 55/55/29 54/54/28
f 48/48/46 50/50/46 49/49/46
f 48/48/47 68/69/47 4/4/47
f 1/1/48 26/26/48 2/2/48
f 73/74/49 5/5/49 74/75/49
f 28/28/50 47/47/50 49/49/50
f 41/41/51 53/53/51 75/76/51
f 76/77/52 77/78/52 78/79/52
f 38/38/53 79/80/53 15/68/53
f 77/78/54 9/9/54 78/79/54
f 78/79/55 74/75/55 76/77/55
f 12/12/56 11/11/34 3/3/36
f 2/2/57 80/81/57 3/3/57
f 27/27/58 29/29/58 64/64/58
f 70/71/59 81/82/59 76/77/59
f 82/83/60 16/16/60 83/84/60
f 84/85/61 82/83/61 44/44/61
f 22/22/62 21/21/62 60/60/62
f 63/63/63 65/65/63 25/25/63
f 9/9/64 77/78/64 7/7/64
f 85/86/65 86/87/65 77/78/65
f 64/64/66 29/29/66 23/23/66
f 23/23/67 22/22/67 87/88/67
f 85/86/68 57/57/68 37/37/68
f 37/37/69 86/87/69 85/86/69
f 88/89/70 22/90/70 25/25/70
f 22/90/71 88/89/71 87/88/71
f 14/91/72 66/66/72 15/68/72
f 84/85/73 44/44/73 89/92/73
f 75/76/74 47/47/74 28/28/74
f 5/5/75 73/74/75 61/61/75
f 12/12/76 3/3/76 46/46/76
f 12/12/77 83/84/77 62/62/77
f 71/72/78 70/71/78 68/69/78
f 20/93/79 26/26/79 25/25/79
f 22/90/80 60/94/80 25/25/80
f 46/46/81 13/13/81 15/15/81
f 80/81/82 46/46/82 3/3/82
f 90/95/83 53/53/83 52/52/83
f 55/55/84 90/95/84 52/52/84
f 76/77/85 81/82/85 58/58/85
f 73/74/86 9/9/86 8/8/86
f 82/83/87 83/84/87 32/32/87
f 83/84/88 46/46/88 45/45/88
f 75/76/89 28/28/89 91/96/89
f 91/96/90 28/28/90 27/27/90
f 5/5/91 92/97/91 74/75/91
f 68/69/92 92/97/92 5/5/92
f 93/98/93 36/36/93 67/67/93
f 86/87/94 37/37/94 36/36/94
f 40/40/95 39/39/95 42/42/95
f 39/39/96 91/96/96 42/42/96
f 17/17/97 16/16/97 84/85/97
f 16/16/98 82/83/98 84/85/98
f 21/21/99 6/6/99 61/61/99
f 75/76/100 53/53/100 94/99/100
f 1/1/101 24/24/101 26/26/101
f 42/42/102 24/24/102 1/1/102
f 93/98/103 95/100/103 7/7/103
f 89/92/104 96/101/104 84/85/104
f 89/92/105 81/82/105 72/73/105
f 67/67/106 36/36/107 38/38/108
f 67/67/106 38/38/108 15/68/109
f 10/10/110 17/17/110 41/41/110
f 11/11/111 10/10/111 41/41/111
f 33/33/112 79/80/112 38/38/112
f 4/4/113 6/6/113 51/51/113
f 69/70/114 63/63/114 43/43/114
f 63/63/115 24/24/115 43/43/115
f 35/35/116 56/56/116 44/44/116
f 44/44/117 56/56/117 89/92/117
f 11/11/118 41/41/21 40/40/20
f 69/70/119 27/27/119 65/65/119
f 69/70/120 91/96/120 27/27/120
f 50/50/121 4/4/121 51/51/121
f 48/48/122 4/4/122 50/50/122
f 64/64/123 88/89/123 65/65/123
f 65/65/124 88/89/124 25/25/124
f 41/41/125 75/76/125 39/39/125
f 39/39/126 75/76/126 91/96/126
f 71/72/127 55/55/127 72/73/127
f 55/55/128 71/72/128 68/69/128
f 46/46/129 80/81/129 13/13/129
f 13/13/130 80/81/130 2/2/130
f 42/42/131 91/96/131 97/102/131
f 42/42/132 97/102/132 43/43/132
f 25/25/133 60/94/133 20/93/133
f 60/60/134 59/59/134 20/20/134
f 14/91/135 95/100/135 66/66/135
f 49/49/136 29/29/136 28/28/136
f 29/29/137 49/49/137 23/23/137
f 16/16/138 62/62/138 83/84/138
f 95/100/139 14/91/139 30/30/139
f 30/30/140 14/91/140 2/103/140
f 74/75/141 92/97/141 76/77/141
f 94/99/142 47/47/142 75/76/142
f 47/47/143 94/99/143 48/48/143
f 57/57/144 35/35/144 34/34/144
f 57/57/145 56/56/145 35/35/145
f 41/41/146 17/17/146 96/101/146
f 19/19/147 30/30/147 2/103/147
f 19/19/148 2/103/148 26/104/148
f 92/97/149 70/71/149 76/77/149
f 49/49/150 50/50/150 23/23/150
f 31/31/151 44/44/151 82/83/151
f 19/19/152 26/104/152 20/20/152
f 12/12/153 46/46/153 83/84/153
f 86/87/154 36/36/154 93/98/154
f 11/11/155 40/40/155 42/42/155
f 81/82/156 56/56/156 58/58/156
f 23/23/157 51/51/157 21/21/157
f 21/21/158 51/51/158 6/6/158
f 88/89/159 64/64/159 87/88/159
f 23/23/160 87/88/160 64/64/160
f 18/18/161 7/7/161 95/100/161
f 9/9/162 74/75/162 78/79/162
f 73/74/163 74/75/163 9/9/163
f 90/95/164 94/99/164 53/53/164
f 70/71/165 72/73/165 81/82/165
f 59/59/166 18/18/7 20/20/9
f 73/74/167 8/8/167 59/59/167
f 66/66/168 95/100/168 67/67/168
f 93/98/169 67/67/169 95/100/169
f 33/33/170 32/32/170 79/80/170
f 94/99/171 90/95/171 48/48/171
f 54/54/172 41/41/172 96/101/172
f 53/53/173 41/41/173 54/54/173
f 7/7/174 86/87/174 93/98/174
f 77/78/175 86/87/175 7/7/175
f 37/37/176 34/34/176 38/38/176
f 34/34/177 37/37/177 57/57/177
f 61/61/178 73/74/178 59/59/178
f 38/38/179 34/34/179 33/33/179
f 34/34/180 31/31/180 33/33/180
f 68/69/181 70/71/181 92/97/181
f 58/58/182 57/57/182 85/86/182
f 59/59/183 8/8/183 18/18/183
f 83/84/184 45/45/184 32/32/184
f 72/73/185 54/54/185 96/101/185
f 89/92/186 72/73/186 96/101/186
f 18/18/187 95/100/187 30/30/187
f 76/77/188 58/58/188 77/78/188
f 11/11/189 42/42/189 1/1/189
f 68/69/190 90/95/190 55/55/190
f 58/58/191 85/86/191 77/78/191
f 89/92/192 56/56/192 81/82/192
f 15/15/193 79/80/193 45/45/193
f 32/32/194 45/45/194 79/80/194
f 31/31/195 82/83/195 32/32/195
f 97/102/196 91/96/196 43/43/196
f 91/96/197 69/70/197 43/43/197
f 17/17/198 84/85/198 96/101/198
f 68/69/199 48/48/199 90/95/199
f 10/10/200 62/62/200 16/16/200
