# Blender v2.80 (sub 75) OBJ File: ''
# www.blender.org
o Asteroids.003
v 1.194630 1.339833 -1.968860
v 0.847539 2.282924 -1.195600
v 1.656249 1.534065 -1.102510
v -2.049460 0.263392 -0.177605
v -2.037252 0.153050 0.828510
v -1.891855 0.967630 -0.454615
v -1.175096 1.076661 0.776335
v -0.806433 0.558430 1.095017
v -0.826209 0.692288 -1.928690
v 0.157542 -0.737989 -1.580041
v -0.445677 -0.581984 -1.541567
v -0.680557 -1.193454 -0.436188
v 0.036240 -1.996744 0.666987
v -0.786441 -2.071313 0.391772
v 1.077921 -0.123410 1.840940
v 1.060754 -0.753453 1.765729
v 1.869981 -0.242948 1.926733
v 2.729640 0.182031 1.675514
v 1.952339 1.644091 0.507309
v 2.306786 0.568178 1.577719
v 2.348060 -0.942332 0.073649
v 2.338423 0.083374 -0.234415
v 3.049451 -0.295337 0.103257
v -1.893268 -1.317182 -0.555481
v -1.648781 -2.079411 1.064468
v -2.367616 -1.110611 0.198364
v 0.420313 -1.778668 1.232270
v -0.621353 -2.323677 1.223792
v -0.260548 -1.192406 2.361414
v 0.172027 -0.103790 2.008752
v -1.206736 -0.861590 2.383131
v -1.607062 1.739544 -1.805097
v -1.847285 0.621887 -1.496925
v -1.458553 1.029626 -1.037538
v 0.859303 1.059560 -2.474188
v 1.396606 -0.445473 -1.539227
v 1.312027 -0.530059 -0.932744
v 0.898551 -1.019575 -0.788568
v 0.294016 1.393640 -2.360659
v 0.899900 0.104940 -2.084842
v 0.750441 -0.498899 -1.678769
v 0.269725 -0.918192 1.989531
v 1.537830 -1.507235 0.479649
v 1.249834 -1.234215 1.219414
v 2.630039 0.886324 0.648979
v 2.379350 1.525831 0.188762
v 2.589885 -0.868193 1.792884
v 2.519494 -1.401535 1.318572
v 1.660714 -0.067104 -1.675786
v 3.271261 -0.590286 1.133292
v -0.208405 2.329935 -0.822627
v -1.368288 1.485668 0.269008
v -0.834021 1.343305 0.253210
v -2.401886 -1.152974 0.884165
v -1.429054 -1.477784 2.265627
v -2.271112 -0.955940 1.545695
v -1.977455 -0.533065 1.726892
v -2.342364 -0.740534 -0.425231
v -2.195903 0.210520 -0.810195
v -1.947343 0.220338 -1.736767
v -2.458245 -0.139401 0.388259
v -1.393126 -0.443670 -1.734159
v -1.567145 0.547354 -1.896101
v -2.125484 -0.722187 -1.061408
v 0.121591 0.426986 1.856622
v -1.386548 -2.062539 0.456002
v -1.354879 -1.061917 -1.128510
v -0.326638 1.378734 0.608357
v 0.142434 1.841730 0.201345
v 1.188182 -1.504219 0.108706
v -2.242158 -0.092151 1.079792
v 0.869924 1.870927 0.069989
v 2.452179 1.347396 -0.084531
v -1.122582 -1.841766 1.893246
v -0.510234 -1.999443 1.720048
v -1.853629 0.851181 0.436890
v 1.471561 0.818018 1.397784
v -0.300322 1.719180 -2.205414
v -0.085005 0.853510 -2.188961
v 1.869230 -0.573206 -0.532034
v -0.100984 2.224269 -2.162481
v -0.184041 2.463028 -1.547165
v 0.357144 -1.379038 -0.586242
v -1.112561 1.776483 -2.083449
v -1.481005 1.992373 -1.415065
v -1.011143 -1.774866 2.436833
v -1.363890 1.731111 -1.118826
v -1.162019 2.257407 -1.440431
v 0.992223 1.435634 0.982878
v 2.168863 0.175085 -1.262157
v 0.520721 -1.475469 1.569491
v 3.116009 0.059711 0.694567
v -1.777077 -1.774285 1.530939
v -0.885756 -0.964321 -1.031039
v 1.502461 0.906079 -1.915959
v 2.098133 1.375827 -0.679761
v -0.217104 -1.892995 2.069411
vt 0.495966 0.761359
vt 0.513110 0.725952
vt 0.532932 0.751486
vt 0.404624 0.653300
vt 0.434234 0.622254
vt 0.425493 0.664832
vt 0.480262 0.639431
vt 0.500957 0.626109
vt 0.418886 0.745769
vt 0.429707 0.809043
vt 0.409711 0.788532
vt 0.389651 0.822986
vt 0.436650 0.909365
vt 0.371103 0.869692
vt 0.608261 0.626782
vt 0.610285 0.587410
vt 0.645933 0.668073
vt 0.646688 0.756985
vt 0.580481 0.717853
vt 0.623646 0.729510
vt 0.548481 0.837350
vt 0.554922 0.798563
vt 0.576142 0.806378
vt 0.333028 0.597959
vt 0.421631 0.531760
vt 0.372503 0.607659
vt 0.489597 0.469716
vt 0.536555 0.491923
vt 0.468450 0.500272
vt 0.532537 0.553610
vt 0.564689 0.599666
vt 0.495425 0.570103
vt 0.433790 0.707841
vt 0.398286 0.704554
vt 0.420092 0.685163
vt 0.477336 0.768054
vt 0.484774 0.815225
vt 0.491422 0.827461
vt 0.469039 0.841049
vt 0.464021 0.755114
vt 0.469224 0.791071
vt 0.455568 0.810566
vt 0.563480 0.560479
vt 0.496844 0.925059
vt 0.527343 0.876824
vt 0.557498 0.897452
vt 0.599391 0.752109
vt 0.579179 0.738318
vt 0.620556 0.830923
vt 0.599474 0.907028
vt 0.590038 0.849482
vt 0.496297 0.801231
vt 0.610565 0.803519
vt 0.494691 0.695076
vt 0.468612 0.654212
vt 0.492046 0.655691
vt 0.403539 0.587407
vt 0.475422 0.553365
vt 0.434581 0.583863
vt 0.454242 0.590157
vt 0.348333 0.660520
vt 0.387021 0.676518
vt 0.386067 0.715752
vt 0.397466 0.630145
vt 0.382299 0.748800
vt 0.400557 0.724729
vt 0.358887 0.706831
vt 0.555641 0.616435
vt 0.339755 0.843002
vt 0.336917 0.753796
vt 0.365081 0.765992
vt 0.518491 0.654958
vt 0.526786 0.677991
vt 0.497675 0.872653
vt 0.430092 0.612034
vt 0.543282 0.699564
vt 0.572440 0.747070
vt 0.471017 0.533314
vt 0.493244 0.515926
vt 0.446160 0.642666
vt 0.599982 0.683465
vt 0.453951 0.740259
vt 0.444330 0.760654
vt 0.521497 0.825069
vt 0.469243 0.732294
vt 0.480999 0.714953
vt 0.441712 0.850106
vt 0.441590 0.721014
vt 0.445759 0.698020
vt 0.490504 0.541747
vt 0.444422 0.687992
vt 0.457105 0.701001
vt 0.399160 0.522841
vt 0.429447 0.487582
vt 0.573662 0.676095
vt 0.521573 0.793821
vt 0.562703 0.517389
vt 0.596932 0.786015
vt 0.439154 0.548683
vt 0.383713 0.791543
vt 0.501295 0.772843
vt 0.644603 0.846597
vt 0.532537 0.931988
vt 0.550575 0.754186
vt 0.514410 0.526444
vn 0.6273 0.6187 -0.4730
vn -0.9720 0.2322 0.0373
vn -0.3031 0.3334 0.8927
vn -0.1441 -0.3268 -0.9340
vn 0.2883 -0.6752 -0.6790
vn -0.1240 -0.1143 0.9857
vn 0.5060 0.6864 0.5224
vn 0.2903 -0.2728 -0.9172
vn -0.6719 -0.7041 -0.2299
vn 0.4632 -0.8858 0.0270
vn 0.1145 0.2647 0.9575
vn -0.8431 0.3036 0.4439
vn 0.3974 0.6648 -0.6325
vn 0.7663 -0.6422 0.0173
vn -0.4939 -0.3977 -0.7732
vn 0.5570 0.0473 0.8291
vn 0.4912 -0.7375 0.4634
vn 0.8110 0.5161 0.2754
vn -0.0627 -0.6586 0.7499
vn 0.3866 -0.3341 -0.8596
vn 0.6918 -0.5287 0.4919
vn 0.1979 0.6624 0.7225
vn -0.7983 -0.0571 -0.5995
vn -0.6845 -0.6505 0.3291
vn -0.3688 0.7293 0.5763
vn -0.3661 0.7282 0.5794
vn -0.3654 0.7279 0.5802
vn -0.9650 0.0440 -0.2584
vn -0.9824 0.0353 0.1837
vn -0.0115 -0.1632 -0.9865
vn -0.9447 -0.0533 -0.3236
vn -0.3692 0.7295 0.5758
vn -0.5151 -0.4328 -0.7399
vn -0.1683 -0.8319 -0.5287
vn -0.3505 0.7931 0.4982
vn 0.5673 -0.6340 -0.5256
vn 0.3228 -0.9358 0.1417
vn -0.9418 0.1835 0.2817
vn -0.5967 0.7915 0.1324
vn 0.3076 0.9492 -0.0664
vn -0.0567 -0.8299 0.5550
vn -0.5141 0.5185 0.6833
vn 0.1033 0.2831 0.9535
vn -0.0315 0.4364 0.8992
vn -0.3108 -0.0953 -0.9457
vn -0.2987 -0.0923 -0.9499
vn -0.3002 -0.0927 -0.9494
vn 0.0094 -0.2646 -0.9643
vn 0.3822 -0.6971 -0.6066
vn -0.7838 0.3150 0.5352
vn -0.6142 0.0906 0.7840
vn -0.1718 0.1506 -0.9736
vn -0.3638 0.8508 -0.3792
vn -0.2211 -0.8511 -0.4761
vn 0.1936 -0.8987 -0.3934
vn 0.9294 0.3691 0.0067
vn -0.3713 0.7396 -0.5614
vn -0.9624 0.0794 0.2596
vn 0.0469 0.0686 0.9965
vn 0.3236 -0.7849 -0.5284
vn 0.3036 -0.7717 -0.5588
vn -0.4721 0.5844 0.6600
vn -0.4851 0.8614 0.1508
vn 0.6517 -0.6804 -0.3352
vn 0.6453 -0.6836 -0.3408
vn 0.6513 -0.6806 -0.3355
vn -0.2711 -0.8659 0.4204
vn -0.5827 -0.7657 -0.2723
vn -0.4713 0.6373 0.6097
vn -0.2123 -0.9700 -0.1184
vn 0.1910 -0.9282 -0.3194
vn 0.4965 0.2824 0.8208
vn 0.6529 -0.6152 -0.4419
vn -0.2306 -0.1962 -0.9531
vn -0.8998 0.3661 -0.2375
vn -0.3311 0.6288 0.7036
vn -0.6268 0.0783 0.7753
vn -0.1543 -0.0929 -0.9837
vn -0.1376 0.1377 -0.9809
vn 0.2862 0.9313 -0.2252
vn 0.6405 -0.2570 0.7237
vn 0.6403 -0.2575 0.7237
vn 0.6404 -0.2572 0.7237
vn -0.7204 0.6884 0.0842
vn -0.1863 0.7748 0.6041
vn 0.3295 -0.4692 0.8193
vn 0.2935 -0.1212 0.9482
vn -0.9951 -0.0821 -0.0548
vn -0.2324 -0.3783 -0.8961
vn -0.3113 -0.0954 -0.9455
vn 0.1821 -0.0014 0.9833
vn 0.1696 0.4823 0.8594
vn -0.5117 0.5631 0.6489
vn 0.4149 0.6722 0.6132
vn 0.7121 0.3863 -0.5862
vn -0.3979 -0.0313 0.9169
vn -0.6250 -0.5749 0.5281
vn 0.1590 -0.2432 -0.9569
vn -0.0936 -0.8451 -0.5263
vn 0.6436 -0.0831 -0.7608
vn 0.6417 -0.0838 -0.7624
vn 0.6499 -0.0808 -0.7557
vn -0.9522 0.2950 0.0794
vn 0.7669 0.4747 0.4319
vn 0.8649 0.4491 0.2242
vn -0.3510 -0.6663 -0.6579
vn 0.0043 -0.8022 -0.5971
vn -0.4350 0.6339 0.6395
vn -0.0358 -0.2485 0.9680
vn 0.0343 0.4562 0.8892
vn -0.8547 0.1721 0.4897
vn 0.4952 -0.6270 -0.6014
vn -0.2088 -0.9346 -0.2880
vn -0.4927 0.0498 -0.8688
vn -0.6754 0.7313 0.0952
vn -0.7560 0.6517 0.0612
vn -0.1847 0.9677 0.1715
vn 0.0393 0.9071 0.4190
vn -0.3344 -0.8282 0.4498
vn -0.7662 -0.6379 -0.0777
vn 0.2670 0.9100 -0.3171
vn 0.1082 0.9771 0.1831
vn 0.9775 0.1133 -0.1781
vn 0.5781 0.6692 -0.4669
vn 0.5021 -0.5556 0.6627
vn -0.1498 -0.7674 0.6234
vn 0.6982 -0.0129 0.7158
vn 0.2452 0.0754 0.9665
vn 0.9335 0.0513 -0.3548
vn -0.3847 -0.3626 -0.8488
vn 0.4795 -0.7187 0.5034
vn 0.4157 -0.8012 0.4304
vn -0.7865 -0.5484 -0.2840
vn -0.3563 -0.6821 -0.6386
vn 0.6451 -0.6837 -0.3410
vn -0.1473 -0.9452 0.2915
vn 0.2682 -0.8643 -0.4255
vn 0.2820 -0.6624 -0.6940
vn -0.0828 -0.9869 0.1384
vn -0.1873 -0.9696 0.1577
vn 0.1811 -0.8355 -0.5188
vn 0.5501 0.6799 0.4849
vn -0.2079 0.7928 -0.5730
vn -0.1266 -0.9143 0.3848
vn 0.0206 -0.9906 -0.1353
vn -0.6382 0.7653 0.0838
vn -0.9785 0.0726 -0.1930
vn -0.2205 -0.6800 -0.6993
vn -0.0813 0.1945 -0.9775
vn -0.9934 -0.0760 -0.0853
vn -0.7768 -0.5272 -0.3443
vn -0.4315 0.5851 0.6866
vn 0.7070 -0.1973 -0.6792
vn -0.0442 -0.9584 -0.2819
vn -0.0694 -0.8429 -0.5336
vn -0.0158 0.5491 0.8356
vn 0.1743 0.7228 0.6688
vn 0.6519 -0.0801 -0.7540
vn 0.2695 -0.9268 -0.2616
vn 0.6555 0.3860 -0.6491
vn 0.7357 0.4617 -0.4955
vn 0.2293 0.7986 0.5565
vn 0.7544 -0.4576 -0.4706
vn 0.5605 0.7732 -0.2965
vn -0.7738 0.6231 0.1139
vn -0.7742 0.6225 0.1145
vn -0.7710 0.6275 0.1087
vn 0.3106 -0.6825 -0.6615
vn -0.2135 0.7384 0.6397
vn 0.4397 -0.8929 -0.0968
vn 0.3524 -0.3413 0.8714
vn 0.4459 -0.7275 0.5214
vn -0.2194 0.6807 -0.6989
vn -0.6279 0.7299 -0.2702
vn 0.2437 -0.8189 -0.5195
vn -0.2033 0.0252 0.9788
vn -0.7803 -0.5997 0.1777
vn -0.8128 -0.2933 0.5034
vn 0.6386 -0.2620 0.7236
vn -0.1465 0.4708 0.8700
vn -0.0108 -0.3588 -0.9334
vn 0.0424 -0.3296 -0.9432
vn 0.2174 -0.5812 -0.7842
vn 0.8150 -0.3868 -0.4315
vn 0.6540 -0.7363 -0.1736
vn 0.8243 0.3621 -0.4353
vn 0.1492 0.9410 0.3037
vn 0.6479 0.7277 0.2254
vn 0.9800 0.1305 -0.1500
vn 0.7108 0.3404 -0.6155
vn 0.3943 -0.8375 -0.3784
vn 0.4024 -0.8395 -0.3651
vn 0.0340 0.9191 0.3926
vn 0.0235 0.8973 0.4407
vn 0.3154 -0.5092 -0.8008
vn -0.8170 0.0166 -0.5764
vn -0.6630 0.4987 -0.5584
vn -0.8039 0.0397 -0.5934
vn -0.3945 0.7799 0.4858
vn -0.2087 0.7564 0.6199
vn -0.7710 0.6276 0.1085
vn 0.5489 0.6065 -0.5752
s 1
f 1/1/1 2/2/1 3/3/1
f 4/4/2 5/5/2 6/6/2
f 7/7/3 5/5/3 8/8/3
f 9/9/4 10/10/4 11/11/4
f 12/12/5 13/13/5 14/14/5
f 15/15/6 16/16/6 17/17/6
f 18/18/7 19/19/7 20/20/7
f 21/21/8 22/22/8 23/23/8
f 24/24/9 25/25/9 26/26/9
f 13/27/10 27/28/10 28/29/10
f 29/30/11 30/31/11 31/32/11
f 32/33/12 33/34/12 34/35/12
f 35/36/13 2/2/13 1/1/13
f 36/37/14 37/38/14 38/39/14
f 39/40/15 40/41/15 41/42/15
f 42/43/16 30/31/16 29/30/16
f 27/44/17 43/45/17 44/46/17
f 18/18/18 45/47/18 46/48/18
f 47/49/19 16/50/19 48/51/19
f 40/41/20 35/36/20 49/52/20
f 47/49/21 48/51/21 50/53/21
f 51/54/22 52/55/22 53/56/22
f 6/6/23 34/35/23 4/4/23
f 54/57/24 55/58/24 56/59/24
f 57/60/25 8/8/26 5/5/27
f 58/61/28 59/62/28 60/63/28
f 56/59/29 61/64/29 54/57/29
f 62/65/30 63/66/30 9/9/30
f 58/61/31 60/63/31 64/67/31
f 65/68/32 8/8/26 57/60/25
f 64/67/33 60/63/33 62/65/33
f 66/69/34 24/70/34 67/71/34
f 68/72/35 69/73/35 51/54/35
f 38/39/36 37/38/36 70/74/36
f 27/44/37 13/13/37 43/45/37
f 56/59/38 71/75/38 61/64/38
f 71/75/39 4/4/39 61/64/39
f 72/76/40 73/77/40 3/3/40
f 74/78/41 28/29/41 75/79/41
f 7/7/42 76/80/42 5/5/42
f 65/68/43 31/32/43 30/31/43
f 15/15/44 17/17/44 77/81/44
f 78/82/45 39/40/46 79/83/47
f 63/66/48 78/82/48 9/9/48
f 37/38/49 80/84/49 70/74/49
f 57/60/50 71/75/50 56/59/50
f 55/58/51 57/60/51 56/59/51
f 81/85/52 39/40/52 78/82/52
f 81/85/53 32/33/53 82/86/53
f 12/12/54 83/87/54 13/13/54
f 83/87/55 70/74/55 13/13/55
f 73/77/56 46/48/56 45/47/56
f 84/88/57 32/33/57 81/85/57
f 32/33/58 34/35/58 85/89/58
f 86/90/59 29/30/59 31/32/59
f 83/87/60 38/39/60 70/74/60
f 10/10/61 38/39/61 83/87/61
f 87/91/62 51/54/62 88/92/62
f 51/54/63 87/91/63 52/55/63
f 50/53/64 48/51/65 23/23/66
f 25/25/67 28/29/67 74/78/67
f 24/24/68 66/93/68 25/25/68
f 8/8/69 68/72/69 53/56/69
f 66/93/70 28/29/70 25/25/70
f 14/94/71 13/27/71 28/29/71
f 89/95/72 65/68/72 30/31/72
f 36/37/73 49/52/73 90/96/73
f 60/63/74 63/66/74 62/65/74
f 59/62/75 33/34/75 60/63/75
f 57/60/76 31/32/76 65/68/76
f 55/58/77 31/32/77 57/60/77
f 63/66/78 84/88/78 78/82/78
f 78/82/79 84/88/79 81/85/79
f 19/19/80 73/77/80 72/76/80
f 42/43/81 29/30/82 91/97/83
f 71/75/84 5/5/84 4/4/84
f 57/60/85 5/5/85 71/75/85
f 42/43/86 91/97/86 16/16/86
f 42/43/87 16/16/87 15/15/87
f 61/64/88 26/26/88 54/57/88
f 9/9/89 79/83/89 10/10/89
f 9/9/90 78/82/45 79/83/47
f 30/31/91 42/43/91 15/15/91
f 15/15/92 89/95/92 30/31/92
f 7/7/93 52/55/93 76/80/93
f 8/8/94 53/56/94 7/7/94
f 45/47/95 92/98/95 22/22/95
f 86/90/96 31/32/96 55/58/96
f 86/90/97 55/58/97 93/99/97
f 62/65/98 9/9/98 11/11/98
f 83/87/99 94/100/99 10/10/99
f 49/52/100 35/36/101 95/101/102
f 5/5/103 76/80/103 6/6/103
f 45/47/104 50/53/104 92/98/104
f 18/18/105 50/53/105 45/47/105
f 67/71/106 64/67/106 62/65/106
f 11/11/107 94/100/107 62/65/107
f 8/8/108 65/68/108 68/72/108
f 17/102/109 16/50/109 47/49/109
f 77/81/110 17/17/110 18/18/110
f 85/89/111 34/35/111 87/91/111
f 12/12/112 14/14/112 67/71/112
f 83/87/113 12/12/113 94/100/113
f 84/88/114 63/66/114 32/33/114
f 59/62/115 4/4/115 33/34/115
f 33/34/116 4/4/116 34/35/116
f 51/54/117 82/86/117 88/92/117
f 72/76/118 51/54/118 69/73/118
f 25/25/119 74/78/119 93/99/119
f 26/26/120 25/25/120 54/57/120
f 81/85/121 82/86/121 2/2/121
f 2/2/122 82/86/122 51/54/122
f 50/53/123 23/23/123 92/98/123
f 23/23/124 22/22/124 92/98/124
f 91/103/125 44/46/125 16/50/125
f 16/50/126 44/46/126 48/51/126
f 18/18/127 47/49/127 50/53/127
f 17/102/128 47/49/128 18/18/128
f 96/104/129 45/47/129 22/22/129
f 39/40/130 35/36/130 40/41/130
f 27/44/131 44/46/131 91/103/131
f 75/79/132 28/29/132 27/28/132
f 24/70/133 58/61/133 64/67/133
f 24/70/134 64/67/134 67/71/134
f 21/21/135 23/23/66 48/51/65
f 48/51/136 44/46/136 43/45/136
f 12/12/137 67/71/137 94/100/137
f 94/100/138 67/71/138 62/65/138
f 97/105/139 86/90/139 74/78/139
f 74/78/140 86/90/140 93/99/140
f 41/42/141 36/37/141 38/39/141
f 46/48/142 19/19/142 18/18/142
f 19/19/143 46/48/143 73/77/143
f 97/105/144 74/78/144 75/79/144
f 36/37/145 80/84/145 37/38/145
f 59/62/146 61/64/146 4/4/146
f 61/64/147 59/62/147 58/61/147
f 94/100/148 11/11/148 10/10/148
f 81/85/149 35/36/149 39/40/149
f 58/61/150 26/26/150 61/64/150
f 58/61/151 24/24/151 26/26/151
f 88/92/152 85/89/152 87/91/152
f 80/84/153 22/22/153 21/21/153
f 14/94/154 28/29/154 66/93/154
f 67/71/155 14/14/155 66/69/155
f 89/95/156 77/81/156 20/20/156
f 20/20/157 19/19/157 89/95/157
f 49/52/100 95/101/102 90/96/158
f 13/13/159 70/74/159 43/45/159
f 95/101/160 35/36/160 1/1/160
f 95/101/161 1/1/161 3/3/161
f 53/56/162 52/55/162 7/7/162
f 96/104/163 73/77/163 45/47/163
f 96/104/164 3/3/164 73/77/164
f 6/6/165 76/80/166 52/55/167
f 70/74/168 80/84/168 21/21/168
f 65/68/169 89/95/169 68/72/169
f 97/105/170 75/79/170 91/97/170
f 86/90/171 97/105/171 29/30/171
f 27/28/172 91/97/172 75/79/172
f 82/86/173 32/33/173 88/92/173
f 32/33/174 85/89/174 88/92/174
f 10/10/175 41/42/175 38/39/175
f 77/81/176 18/18/176 20/20/176
f 54/57/177 25/25/177 93/99/177
f 55/58/178 54/57/178 93/99/178
f 29/30/82 97/105/179 91/97/83
f 77/81/180 89/95/180 15/15/180
f 79/83/181 41/42/181 10/10/181
f 79/83/182 39/40/182 41/42/182
f 41/42/183 40/41/183 36/37/183
f 80/84/184 36/37/184 22/22/184
f 36/37/185 90/96/185 22/22/185
f 95/101/186 3/3/186 90/96/186
f 51/54/187 72/76/187 2/2/187
f 2/2/188 72/76/188 3/3/188
f 90/96/189 96/104/189 22/22/189
f 3/3/190 96/104/190 90/96/190
f 70/74/191 21/21/191 43/45/191
f 43/45/192 21/21/192 48/51/192
f 69/73/193 19/19/193 72/76/193
f 19/19/194 69/73/194 89/95/194
f 40/41/195 49/52/195 36/37/195
f 32/33/196 63/66/196 33/34/196
f 33/34/197 63/66/197 60/63/197
f 34/35/198 6/6/198 87/91/198
f 68/72/199 51/54/199 53/56/199
f 68/72/200 89/95/200 69/73/200
f 6/6/165 52/55/167 87/91/201
f 81/85/202 2/2/202 35/36/202
